# xmcd
#
# Track frame offsets:
#	150
#	15639
#	29698
#	46878
#	61555
#	74623
#	89219
#	107570
#	121275
#	141030
#	154068
#	173708
#	192936
#	211137
#
# Disc length: 2989
#
# Revision: 4
# Processed by: cddbd v1.5.1PL0 Copyright (c) Steve Scherf et al.
# Submitted via: VisiTrax 2.9.9.209 - For more info visit www.synapsa.com
# Normalized: r3:DSETVAR1
#
DISCID=c00bab0e
DTITLE=Various Artist - Mr Music Country 05-04
DYEAR=2004
DGENRE=Country
TTITLE0=Dierks Bentley - I Bought The Shoes
TTITLE1=Dave Jorgenson - Whiskey Helps The Heartache
TTITLE2=Jennifer Hanson - It Isn't Just Raining
TTITLE3=Nitty Gritty Dirt Band - Some Dark Hollow
TTITLE4=Susan Anderson Bell - I Wish That I Could Fall In Love Today
TTITLE5=Trace Adkins - Baby's Gone
TTITLE6=Nitty Gritty Dirt Band - Catfish John
TTITLE7=Keith Urban - Hank Don't Fail Me Now
TTITLE8=Harvey Perdue and Carol Lee Cooper - I Will Be There
TTITLE9=Arly Karlsen and Billly Don Burns - It Ain't Easy
TTITLE10=Jackson Taylor Band - Guitars, Jim Beam And Waylon
TTITLE11=Jim Rooney - Waymore's Blues
TTITLE12=Jessi Colter - I Belong To Him
TTITLE13=Waylon Jennings - Storms Never Last
EXTD=
EXTT0=
EXTT1=
EXTT2=
EXTT3=
EXTT4=
EXTT5=
EXTT6=
EXTT7=
EXTT8=
EXTT9=
EXTT10=
EXTT11=
EXTT12=
EXTT13=
PLAYORDER=
